<svg width="473" height="45" viewBox="0 0 473 45" fill="none" xmlns="http://www.w3.org/2000/svg">
<path d="M0 0H473V45H0V0Z" fill="white"/>
<path d="M48.2 27.168C50.16 27.168 51.504 26.104 51.504 24.424C51.504 22.604 49.908 22.1 48.13 21.512C46.8 21.078 45.96 20.742 45.96 19.678C45.96 18.6 46.814 17.984 47.99 17.984C49.278 17.984 50.034 18.726 50.398 19.608L51.224 19.146C50.72 17.984 49.6 17.032 47.99 17.032C46.366 17.032 44.98 17.998 44.98 19.72C44.98 21.526 46.52 21.946 48.116 22.478C49.558 22.954 50.524 23.318 50.524 24.452C50.524 25.502 49.698 26.216 48.214 26.216C46.674 26.216 45.75 25.46 45.4 24.284L44.56 24.774C45.064 26.258 46.394 27.168 48.2 27.168ZM56.4171 19.832C54.2471 19.832 52.7631 21.442 52.7631 23.5C52.7631 25.614 54.2751 27.168 56.4871 27.168C57.9011 27.168 58.9791 26.51 59.5671 25.558L58.7551 25.082C58.3771 25.754 57.6071 26.272 56.5011 26.272C55.0171 26.272 53.9111 25.39 53.7151 23.962H59.8611C59.8751 23.822 59.8891 23.668 59.8891 23.528C59.8891 21.61 58.5591 19.832 56.4171 19.832ZM56.4171 20.728C57.6211 20.728 58.7411 21.526 58.9371 23.066H53.7151C53.8971 21.694 54.9471 20.728 56.4171 20.728ZM67.3789 20V21.372C66.7909 20.434 65.7969 19.832 64.5509 19.832C62.5769 19.832 60.9389 21.428 60.9389 23.5C60.9389 25.572 62.5769 27.168 64.5509 27.168C65.7969 27.168 66.7909 26.566 67.3789 25.628V27H68.3029V20H67.3789ZM64.6209 26.272C63.0669 26.272 61.8629 25.054 61.8629 23.5C61.8629 21.946 63.0669 20.728 64.6209 20.728C66.1749 20.728 67.3789 21.946 67.3789 23.5C67.3789 25.054 66.1749 26.272 64.6209 26.272ZM71.1833 21.162V20H70.2593V27H71.1833V23.108C71.1833 21.372 72.2753 20.784 73.3953 20.784V19.888C72.4993 19.888 71.6733 20.182 71.1833 21.162ZM77.4998 27.168C78.8718 27.168 80.0618 26.454 80.6358 25.348L79.8658 24.9C79.4178 25.712 78.5638 26.272 77.4998 26.272C75.9458 26.272 74.7418 25.054 74.7418 23.5C74.7418 21.946 75.9458 20.728 77.4998 20.728C78.5498 20.728 79.4318 21.274 79.8098 22.1L80.5658 21.666C80.0618 20.56 78.8858 19.832 77.4998 19.832C75.3858 19.832 73.8178 21.428 73.8178 23.5C73.8178 25.572 75.3858 27.168 77.4998 27.168ZM85.2384 19.832C84.2444 19.832 83.4324 20.21 82.8864 21.092V17.2H81.9624V27H82.8864V23.332C82.8864 21.456 83.9224 20.728 85.1544 20.728C86.3724 20.728 87.0584 21.456 87.0584 22.702V27H87.9824V22.702C87.9824 20.952 86.9464 19.832 85.2384 19.832ZM96.7691 17.928V17.032C94.8791 16.892 93.8291 17.9 93.8291 19.72V20H92.6391V20.896H93.8291V27H94.7531V20.896H96.7691V20H94.7531V19.72C94.7531 18.376 95.4111 17.816 96.7691 17.928ZM100.592 27.168C102.636 27.168 104.274 25.572 104.274 23.5C104.274 21.428 102.636 19.832 100.592 19.832C98.5476 19.832 96.9096 21.428 96.9096 23.5C96.9096 25.572 98.5476 27.168 100.592 27.168ZM100.592 26.272C99.0376 26.272 97.8336 25.054 97.8336 23.5C97.8336 21.946 99.0376 20.728 100.592 20.728C102.146 20.728 103.35 21.946 103.35 23.5C103.35 25.054 102.146 26.272 100.592 26.272ZM106.744 21.162V20H105.82V27H106.744V23.108C106.744 21.372 107.836 20.784 108.956 20.784V19.888C108.06 19.888 107.234 20.182 106.744 21.162ZM121.184 19.832C120.288 19.832 119.434 20.238 118.916 21.106C118.524 20.294 117.768 19.832 116.788 19.832C115.948 19.832 115.192 20.168 114.646 21.022V20H113.722V27H114.646V23.122C114.646 21.386 115.654 20.728 116.662 20.728C117.656 20.728 118.3 21.386 118.3 22.632V27H119.224V23.122C119.224 21.386 120.092 20.728 121.17 20.728C122.164 20.728 122.878 21.386 122.878 22.632V27H123.802V22.632C123.802 20.882 122.724 19.832 121.184 19.832ZM126.051 18.516C126.429 18.516 126.723 18.208 126.723 17.844C126.723 17.48 126.429 17.172 126.051 17.172C125.673 17.172 125.379 17.48 125.379 17.844C125.379 18.208 125.673 18.516 126.051 18.516ZM125.589 27H126.513V20H125.589V27ZM131.75 19.832C130.756 19.832 129.944 20.21 129.398 21.092V20H128.474V27H129.398V23.332C129.398 21.456 130.434 20.728 131.666 20.728C132.884 20.728 133.57 21.456 133.57 22.702V27H134.494V22.702C134.494 20.952 133.458 19.832 131.75 19.832ZM136.743 18.516C137.121 18.516 137.415 18.208 137.415 17.844C137.415 17.48 137.121 17.172 136.743 17.172C136.365 17.172 136.071 17.48 136.071 17.844C136.071 18.208 136.365 18.516 136.743 18.516ZM136.281 27H137.205V20H136.281V27ZM146.628 19.832C145.732 19.832 144.878 20.238 144.36 21.106C143.968 20.294 143.212 19.832 142.232 19.832C141.392 19.832 140.636 20.168 140.09 21.022V20H139.166V27H140.09V23.122C140.09 21.386 141.098 20.728 142.106 20.728C143.1 20.728 143.744 21.386 143.744 22.632V27H144.668V23.122C144.668 21.386 145.536 20.728 146.614 20.728C147.608 20.728 148.322 21.386 148.322 22.632V27H149.246V22.632C149.246 20.882 148.168 19.832 146.628 19.832ZM157.053 20V21.372C156.465 20.434 155.471 19.832 154.225 19.832C152.251 19.832 150.613 21.428 150.613 23.5C150.613 25.572 152.251 27.168 154.225 27.168C155.471 27.168 156.465 26.566 157.053 25.628V27H157.977V20H157.053ZM154.295 26.272C152.741 26.272 151.537 25.054 151.537 23.5C151.537 21.946 152.741 20.728 154.295 20.728C155.849 20.728 157.053 21.946 157.053 23.5C157.053 25.054 155.849 26.272 154.295 26.272ZM159.933 27H160.857V16.78H159.933V27ZM163.28 18.516C163.658 18.516 163.952 18.208 163.952 17.844C163.952 17.48 163.658 17.172 163.28 17.172C162.902 17.172 162.608 17.48 162.608 17.844C162.608 18.208 162.902 18.516 163.28 18.516ZM162.818 27H163.742V20H162.818V27ZM166.431 21.834C166.431 21.078 167.173 20.728 167.901 20.728C168.573 20.728 169.287 20.994 169.581 21.708L170.351 21.26C169.945 20.392 169.049 19.832 167.901 19.832C166.501 19.832 165.507 20.714 165.507 21.834C165.507 24.41 169.595 23.416 169.595 25.152C169.595 25.978 168.811 26.272 167.985 26.272C167.047 26.272 166.319 25.81 166.067 25.096L165.283 25.558C165.633 26.454 166.585 27.168 167.985 27.168C169.483 27.168 170.519 26.342 170.519 25.152C170.519 22.576 166.431 23.57 166.431 21.834ZM175.497 20.896V20H173.481V18.04L172.557 18.32V20H171.087V20.896H172.557V25.138C172.557 26.818 173.607 27.28 175.497 27V26.188C174.139 26.244 173.481 26.342 173.481 25.138V20.896H175.497ZM183.799 27.168C185.171 27.168 186.361 26.454 186.935 25.348L186.165 24.9C185.717 25.712 184.863 26.272 183.799 26.272C182.245 26.272 181.041 25.054 181.041 23.5C181.041 21.946 182.245 20.728 183.799 20.728C184.849 20.728 185.731 21.274 186.109 22.1L186.865 21.666C186.361 20.56 185.185 19.832 183.799 19.832C181.685 19.832 180.117 21.428 180.117 23.5C180.117 25.572 181.685 27.168 183.799 27.168ZM191.537 19.832C190.543 19.832 189.731 20.21 189.185 21.092V17.2H188.261V27H189.185V23.332C189.185 21.456 190.221 20.728 191.453 20.728C192.671 20.728 193.357 21.456 193.357 22.702V27H194.281V22.702C194.281 20.952 193.245 19.832 191.537 19.832ZM202.088 20V21.372C201.5 20.434 200.506 19.832 199.26 19.832C197.286 19.832 195.648 21.428 195.648 23.5C195.648 25.572 197.286 27.168 199.26 27.168C200.506 27.168 201.5 26.566 202.088 25.628V27H203.012V20H202.088ZM199.33 26.272C197.776 26.272 196.572 25.054 196.572 23.5C196.572 21.946 197.776 20.728 199.33 20.728C200.884 20.728 202.088 21.946 202.088 23.5C202.088 25.054 200.884 26.272 199.33 26.272ZM205.43 18.516C205.808 18.516 206.102 18.208 206.102 17.844C206.102 17.48 205.808 17.172 205.43 17.172C205.052 17.172 204.758 17.48 204.758 17.844C204.758 18.208 205.052 18.516 205.43 18.516ZM204.968 27H205.892V20H204.968V27ZM208.777 21.162V20H207.853V27H208.777V23.108C208.777 21.372 209.869 20.784 210.989 20.784V19.888C210.093 19.888 209.267 20.182 208.777 21.162Z" fill="#616161"/>
<path d="M28.6666 28.6667L24.5801 24.5802M24.5801 24.5802C25.5604 23.6 26.1666 22.2458 26.1666 20.75C26.1666 17.7585 23.7415 15.3334 20.75 15.3334C17.7584 15.3334 15.3333 17.7585 15.3333 20.75C15.3333 23.7416 17.7584 26.1667 20.75 26.1667C22.2458 26.1667 23.5999 25.5604 24.5801 24.5802Z" stroke="#333333" stroke-width="1.8" stroke-linecap="round" stroke-linejoin="round"/>
</svg>
